# Blender 4.1.1
# www.blender.org
mtllib Red flag.mtl
o Cube
v 0.100000 7.060000 -0.100000
v 0.100000 -0.060000 -0.100000
v 0.100000 7.060000 0.100000
v 0.100000 -0.060000 0.100000
v -0.100000 7.060000 -0.100000
v -0.100000 -0.060000 -0.100000
v -0.100000 7.060000 0.100000
v -0.100000 -0.060000 0.100000
vn 0.7070 0.0199 -0.7070
vn 0.7070 -0.0199 -0.7070
vn 0.7070 0.0199 0.7070
vn 0.7070 -0.0199 0.7070
vn -0.7070 0.0199 -0.7070
vn -0.7070 -0.0199 -0.7070
vn -0.7070 0.0199 0.7070
vn -0.7070 -0.0199 0.7070
vt 0.625000 0.500000
vt 0.875000 0.500000
vt 0.875000 0.750000
vt 0.625000 0.750000
vt 0.375000 0.750000
vt 0.625000 1.000000
vt 0.375000 1.000000
vt 0.375000 0.000000
vt 0.625000 0.000000
vt 0.625000 0.250000
vt 0.375000 0.250000
vt 0.125000 0.500000
vt 0.375000 0.500000
vt 0.125000 0.750000
s 1
usemtl Material
f 1/1/1 5/2/5 7/3/7 3/4/3
f 4/5/4 3/4/3 7/6/7 8/7/8
f 8/8/8 7/9/7 5/10/5 6/11/6
f 6/12/6 2/13/2 4/5/4 8/14/8
f 2/13/2 1/1/1 3/4/3 4/5/4
f 6/11/6 5/10/5 1/1/1 2/13/2
o Cone
v -0.046151 4.826262 -0.027274
v -0.046325 4.845439 -0.035166
v -0.046497 4.902309 -0.042935
v -0.046659 4.994686 -0.050283
v -0.046806 5.119019 -0.056927
v -0.046931 5.270530 -0.062613
v -0.047030 5.443398 -0.067121
v -0.047100 5.630978 -0.070278
v -0.047137 5.826063 -0.071963
v -0.047140 6.021154 -0.072111
v -0.047110 6.208756 -0.070717
v -0.047046 6.381659 -0.067834
v -0.046952 6.533216 -0.063573
v -0.046831 6.657607 -0.058098
v -0.046688 6.750048 -0.051618
v -0.046529 6.806988 -0.044384
v -0.046359 6.826240 -0.036673
v -0.046185 6.807062 -0.028781
v -0.046013 6.750192 -0.021011
v -0.045851 6.657815 -0.013663
v -0.045705 6.533483 -0.007019
v -0.045579 6.381971 -0.001334
v -0.045480 6.209104 0.003174
v -0.045410 6.021523 0.006331
v -0.045373 5.826438 0.008017
v -0.045370 5.631347 0.008165
v -0.045401 5.443745 0.006771
v -0.045464 5.270843 0.003888
v -0.045558 5.119285 -0.000373
v -0.045679 4.994895 -0.005849
v -0.045822 4.902453 -0.012328
v -0.045981 4.845513 -0.019562
v -2.945550 5.826251 0.031973
vn -0.1489 -0.3775 -0.9140
vn -0.0686 -0.1352 -0.9884
vn -0.0510 -0.0793 -0.9955
vn -0.0436 -0.0534 -0.9976
vn -0.0398 -0.0375 -0.9985
vn -0.0376 -0.0261 -0.9990
vn -0.0364 -0.0168 -0.9992
vn -0.0358 -0.0086 -0.9993
vn -0.0358 -0.0008 -0.9994
vn -0.0364 0.0074 -0.9993
vn -0.0376 0.0167 -0.9992
vn -0.0398 0.0281 -0.9988
vn -0.0436 0.0440 -0.9981
vn -0.0510 0.0699 -0.9962
vn -0.0687 0.1259 -0.9897
vn -0.1489 0.3688 -0.9175
vn -0.1084 0.3775 0.9197
vn -0.0250 0.1352 0.9905
vn -0.0070 0.0793 0.9968
vn 0.0004 0.0534 0.9986
vn 0.0043 0.0375 0.9993
vn 0.0065 0.0261 0.9996
vn 0.0077 0.0168 0.9998
vn 0.0083 0.0086 0.9999
vn 0.0083 0.0008 1.0000
vn 0.0077 -0.0074 0.9999
vn 0.0065 -0.0167 0.9998
vn 0.0043 -0.0281 0.9996
vn 0.0004 -0.0440 0.9990
vn -0.0070 -0.0699 0.9975
vn 0.9998 -0.0000 -0.0220
vn -0.0250 -0.1259 0.9917
vn -0.1083 -0.3688 0.9232
vt 0.250000 0.490000
vt 0.250000 0.250000
vt 0.296822 0.485388
vt 0.341844 0.471731
vt 0.383337 0.449553
vt 0.419706 0.419706
vt 0.449553 0.383337
vt 0.471731 0.341844
vt 0.485388 0.296822
vt 0.490000 0.250000
vt 0.485388 0.203178
vt 0.471731 0.158156
vt 0.449553 0.116663
vt 0.419706 0.080294
vt 0.383337 0.050447
vt 0.341844 0.028269
vt 0.296822 0.014612
vt 0.250000 0.010000
vt 0.203178 0.014612
vt 0.158156 0.028269
vt 0.116663 0.050447
vt 0.080294 0.080294
vt 0.050447 0.116663
vt 0.028269 0.158156
vt 0.014612 0.203178
vt 0.010000 0.250000
vt 0.014612 0.296822
vt 0.028269 0.341844
vt 0.050447 0.383337
vt 0.080294 0.419706
vt 0.116663 0.449553
vt 0.158156 0.471731
vt 0.750000 0.490000
vt 0.796822 0.485388
vt 0.841844 0.471731
vt 0.883337 0.449553
vt 0.919706 0.419706
vt 0.949553 0.383337
vt 0.971731 0.341844
vt 0.985388 0.296822
vt 0.990000 0.250000
vt 0.985388 0.203178
vt 0.971731 0.158156
vt 0.949553 0.116663
vt 0.919706 0.080294
vt 0.883337 0.050447
vt 0.841844 0.028269
vt 0.796822 0.014612
vt 0.750000 0.010000
vt 0.703178 0.014612
vt 0.658156 0.028269
vt 0.616663 0.050447
vt 0.580294 0.080294
vt 0.550447 0.116663
vt 0.528269 0.158156
vt 0.514612 0.203178
vt 0.510000 0.250000
vt 0.514612 0.296822
vt 0.528269 0.341844
vt 0.550447 0.383337
vt 0.580294 0.419706
vt 0.616663 0.449553
vt 0.658156 0.471731
vt 0.703178 0.485388
vt 0.203178 0.485388
s 0
usemtl Material.001
f 9/15/9 41/16/9 10/17/9
f 10/17/10 41/16/10 11/18/10
f 11/18/11 41/16/11 12/19/11
f 12/19/12 41/16/12 13/20/12
f 13/20/13 41/16/13 14/21/13
f 14/21/14 41/16/14 15/22/14
f 15/22/15 41/16/15 16/23/15
f 16/23/16 41/16/16 17/24/16
f 17/24/17 41/16/17 18/25/17
f 18/25/18 41/16/18 19/26/18
f 19/26/19 41/16/19 20/27/19
f 20/27/20 41/16/20 21/28/20
f 21/28/21 41/16/21 22/29/21
f 22/29/22 41/16/22 23/30/22
f 23/30/23 41/16/23 24/31/23
f 24/31/24 41/16/24 25/32/24
f 25/32/25 41/16/25 26/33/25
f 26/33/26 41/16/26 27/34/26
f 27/34/27 41/16/27 28/35/27
f 28/35/28 41/16/28 29/36/28
f 29/36/29 41/16/29 30/37/29
f 30/37/30 41/16/30 31/38/30
f 31/38/31 41/16/31 32/39/31
f 32/39/32 41/16/32 33/40/32
f 33/40/33 41/16/33 34/41/33
f 34/41/34 41/16/34 35/42/34
f 35/42/35 41/16/35 36/43/35
f 36/43/36 41/16/36 37/44/36
f 37/44/37 41/16/37 38/45/37
f 38/45/38 41/16/38 39/46/38
f 9/47/39 10/48/39 11/49/39 12/50/39 13/51/39 14/52/39 15/53/39 16/54/39 17/55/39 18/56/39 19/57/39 20/58/39 21/59/39 22/60/39 23/61/39 24/62/39 25/63/39 26/64/39 27/65/39 28/66/39 29/67/39 30/68/39 31/69/39 32/70/39 33/71/39 34/72/39 35/73/39 36/74/39 37/75/39 38/76/39 39/77/39 40/78/39
f 39/46/40 41/16/40 40/79/40
f 40/79/41 41/16/41 9/15/41
